<svg width="21" height="21" viewBox="0 0 21 21" fill="none" xmlns="http://www.w3.org/2000/svg">
<path fill-rule="evenodd" clip-rule="evenodd" d="M9.68536 1.92774L7.584 4.02065C7.1488 4.45411 7.1488 5.15688 7.584 5.59034C8.01921 6.02379 8.72482 6.02379 9.16002 5.59034L11.2614 3.49742C12.3727 2.39059 13.9924 1.95833 15.5105 2.36346C17.0286 2.76858 18.2143 3.94956 18.6211 5.46152C19.0278 6.97347 18.5938 8.58672 17.4825 9.69355L15.3535 11.814C15.072 12.0944 14.962 12.5031 15.0651 12.8861C15.1681 13.2691 15.4685 13.5683 15.8531 13.671C16.2377 13.7736 16.648 13.6641 16.9295 13.3837L19.0309 11.2357C21.6116 8.66537 21.6116 4.49806 19.0309 1.92774C16.4502 -0.64258 12.2661 -0.64258 9.68536 1.92774ZM6.60838 20.9664C8.36157 20.9695 10.0435 20.2742 11.2811 19.0348L13.3824 16.9377C13.6639 16.6567 13.7738 16.2472 13.6708 15.8634C13.5678 15.4796 13.2674 15.1798 12.8828 15.077C12.4982 14.9741 12.0879 15.0839 11.8064 15.3648L9.70506 17.462C8.59378 18.571 6.97406 19.0042 5.45603 18.5982C3.93799 18.1923 2.75228 17.0089 2.34552 15.4939C1.93876 13.9789 2.37277 12.3624 3.48404 11.2534L5.58537 9.15622C5.86689 8.87526 5.97684 8.46575 5.87379 8.08195C5.77075 7.69814 5.47037 7.39836 5.0858 7.29552C4.70123 7.19268 4.2909 7.30241 4.00938 7.58337L1.9357 9.7081C0.0457638 11.5942 -0.519613 14.4309 0.50321 16.8952C1.52603 19.3596 3.93562 20.9664 6.60838 20.9664ZM7.5346 14.5152C7.24391 14.5152 6.96538 14.3992 6.76141 14.1931C6.3478 13.7732 6.3478 13.1013 6.76141 12.6814L12.6485 6.76986C13.0756 6.34498 13.7679 6.34498 14.1949 6.76986C14.622 7.19474 14.622 7.88361 14.1949 8.30849L8.3078 14.1931C8.10383 14.3992 7.82529 14.5152 7.5346 14.5152Z" fill="#193A57"/>
</svg>
