<svg width="72" height="72" viewBox="0 0 72 72" fill="none" xmlns="http://www.w3.org/2000/svg">
<circle cx="36" cy="36" r="36" fill="#F5F5F5"/>
<path d="M9.09019 33.3944V32.6356C9.09019 29.5243 11.7992 26.8683 15.3359 26.1094C16.5399 15.1818 25.7957 6.68262 36.9327 6.68262C48.0697 6.68262 57.3254 15.2577 58.5294 26.1853C62.1414 26.9441 64.7752 29.6002 64.7752 32.7115V33.4703C67.1079 33.9256 68.9139 36.2022 68.9139 38.8582C68.9139 41.5901 67.1079 43.7908 64.7752 44.2461V45.005C64.7752 48.7234 61.0127 51.7588 56.3472 51.7588H54.6164V51.4553C51.9074 56.0084 47.5429 59.4992 42.3507 61.0169V61.3963C42.3507 62.2311 41.6734 62.9899 40.7704 62.9899H33.1702C32.3424 62.9899 31.5899 62.307 31.5899 61.3963V61.1687C30.8374 61.1687 30.1602 60.5616 30.1602 59.7269C30.1602 58.8921 30.7622 58.3609 31.5899 58.3609V58.1332C31.5899 57.2985 32.2672 56.5396 33.1702 56.5396H40.6952C41.4477 56.5396 42.1249 57.0708 42.2002 57.8297C49.0479 55.4772 54.0897 49.0269 54.5412 41.4384V28.2342C54.3907 18.5967 46.4894 10.7805 36.8574 10.7805C27.1502 10.7805 19.1737 18.7485 19.1737 28.6136V51.7588H17.4429C12.8527 51.7588 9.01494 48.7234 9.01494 45.005V44.2461C6.68219 43.7908 4.87619 41.5142 4.87619 38.8582C4.95144 36.1263 6.75744 33.8498 9.09019 33.3944Z" fill="#2C4F70"/>
<ellipse cx="36.8574" cy="43.1839" rx="3.01" ry="3.03544" fill="#00ABD3"/>
<ellipse cx="27.8275" cy="43.1839" rx="3.01" ry="3.03544" fill="#00ABD3"/>
<ellipse cx="45.8874" cy="43.1839" rx="3.01" ry="3.03544" fill="#00ABD3"/>
</svg>
